<svg width="92" height="92" viewBox="0 0 92 92" fill="none" xmlns="http://www.w3.org/2000/svg">
<circle cx="45.7219" cy="45.7219" r="45.7219" fill="#74AB70"/>
<path d="M56.7413 27.2426L57.184 27.9327H58.0038H65.6433C66.775 27.9327 67.8725 28.399 68.6907 29.2487C69.5107 30.1004 69.981 31.2671 69.981 32.4949V63.3572C69.981 64.5851 69.5107 65.7518 68.6907 66.6034C67.8725 67.4531 66.775 67.9195 65.6433 67.9195H23.1872C22.0554 67.9195 20.958 67.4531 20.1398 66.6034C19.3197 65.7518 18.8495 64.5851 18.8495 63.3572V32.4949C18.8495 31.2671 19.3197 30.1004 20.1398 29.2487C20.958 28.399 22.0554 27.9327 23.1872 27.9327H30.824H31.6435L32.0863 27.243L35.8593 21.3659C35.8734 21.3439 35.8886 21.3319 35.8992 21.3261C35.9094 21.3204 35.9169 21.3193 35.9217 21.3193H35.924L52.9064 21.3193L52.9088 21.3193C52.9136 21.3193 52.9211 21.3204 52.9313 21.3261C52.9419 21.3319 52.9571 21.3439 52.9712 21.3659L56.7413 27.2426ZM31.6807 28.2394H31.6784H23.1872C22.067 28.2394 21.0046 28.702 20.2304 29.506C19.4581 30.308 19.0337 31.3842 19.0337 32.4949V63.3572C19.0337 64.468 19.4581 65.5441 20.2304 66.3462C21.0046 67.1501 22.067 67.6128 23.1872 67.6128H65.6433C66.7635 67.6128 67.8259 67.1501 68.6001 66.3462C69.3724 65.5441 69.7968 64.468 69.7968 63.3572V32.4949C69.7968 31.3842 69.3724 30.308 68.6001 29.506C67.8259 28.702 66.7635 28.2394 65.6433 28.2394L57.1521 28.2394L57.1498 28.2394C57.145 28.2394 57.1374 28.2383 57.1272 28.2326C57.1166 28.2268 57.1014 28.2148 57.0873 28.1928L53.3143 22.3157L52.8716 21.626H52.052H36.7758H35.9559L35.5133 22.3161L31.7432 28.1928C31.7431 28.1929 31.7431 28.193 31.743 28.1931C31.7289 28.2149 31.7138 28.2268 31.7033 28.2326C31.6931 28.2383 31.6855 28.2394 31.6807 28.2394ZM39.0787 38.4333C40.6635 37.3336 42.5206 36.7505 44.4152 36.7505C46.9545 36.7505 49.4018 37.7975 51.2153 39.6807C53.0306 41.5659 54.06 44.1343 54.06 46.8238C54.06 48.8285 53.4873 50.7838 52.4203 52.442C51.3537 54.0997 49.8435 55.3829 48.0874 56.1383C46.332 56.8934 44.404 57.0899 42.5444 56.7058C40.6845 56.3216 38.968 55.3718 37.6152 53.967C36.2619 52.5616 35.3342 50.7643 34.9579 48.7995C34.5815 46.8345 34.7751 44.7983 35.5121 42.9506C36.2489 41.1034 37.4931 39.5335 39.0787 38.4333ZM39.1375 54.9297C40.6945 56.0101 42.5312 56.5905 44.4152 56.5905C46.943 56.5905 49.3552 55.5472 51.1246 53.7097C52.8922 51.8742 53.8757 49.3963 53.8757 46.8238C53.8757 44.9045 53.3279 43.0239 52.2956 41.4195C51.2629 39.8145 49.7892 38.5548 48.0543 37.8085C46.3187 37.0619 44.4053 36.8656 42.5588 37.247C40.7127 37.6284 39.025 38.5681 37.7058 39.938C36.3872 41.3072 35.4953 43.0451 35.1345 44.9289C34.7737 46.8125 34.9584 48.7655 35.6674 50.5431C36.3766 52.3211 37.5812 53.8499 39.1375 54.9297Z" fill="white" stroke="white" stroke-width="3"/>
</svg>
