<svg width="120" height="120" viewBox="0 0 120 120" fill="none" xmlns="http://www.w3.org/2000/svg">
<g id="Group 26">
<circle id="Ellipse 15" cx="60" cy="60" r="60" fill="#74AB70"/>
<path id="Vector" d="M47 56.9924C47 56.1083 47.3512 55.2605 47.9763 54.6354C48.6015 54.0102 49.4493 53.6591 50.3334 53.6591H70.3334C71.2174 53.6591 72.0653 54.0102 72.6904 54.6354C73.3155 55.2605 73.6667 56.1083 73.6667 56.9924C73.6667 57.8764 73.3155 58.7243 72.6904 59.3494C72.0653 59.9745 71.2174 60.3257 70.3334 60.3257H50.3334C49.4493 60.3257 48.6015 59.9745 47.9763 59.3494C47.3512 58.7243 47 57.8764 47 56.9924ZM50.3334 66.9924C49.4493 66.9924 48.6015 67.3436 47.9763 67.9687C47.3512 68.5938 47 69.4417 47 70.3257C47 71.2098 47.3512 72.0576 47.9763 72.6827C48.6015 73.3079 49.4493 73.659 50.3334 73.659H63.6667C64.5508 73.659 65.3986 73.3079 66.0237 72.6827C66.6488 72.0576 67 71.2098 67 70.3257C67 69.4417 66.6488 68.5938 66.0237 67.9687C65.3986 67.3436 64.5508 66.9924 63.6667 66.9924H50.3334ZM27 60.3257C27.0017 53.0177 29.405 45.9128 33.84 40.1044C38.275 34.296 44.4959 30.106 51.5454 28.1793C58.5948 26.2526 66.0821 26.696 72.8549 29.4412C79.6277 32.1865 85.3106 37.0814 89.0291 43.3726C92.7476 49.6639 94.2955 57.0028 93.4346 64.2599C92.5738 71.517 89.3518 78.2901 84.2647 83.5368C79.1776 88.7836 72.5071 92.2131 65.2801 93.2976C58.053 94.3821 50.6698 93.0615 44.2667 89.539L31.3067 93.4857C30.7286 93.6618 30.1136 93.6774 29.5273 93.531C28.9411 93.3845 28.4056 93.0814 27.9784 92.6541C27.5511 92.2268 27.248 91.6914 27.1015 91.1051C26.955 90.5188 26.9706 89.9038 27.1467 89.3257L31.0934 76.3457C28.3997 71.4364 26.9916 65.9255 27 60.3257ZM60.3334 33.6591C55.5996 33.6587 50.9511 34.9184 46.8652 37.3088C42.7794 39.6992 39.4034 43.1341 37.0842 47.2608C34.765 51.3875 33.5861 56.0572 33.6685 60.7902C33.751 65.5232 35.0918 70.149 37.5534 74.1924C37.7977 74.594 37.9543 75.0429 38.0129 75.5093C38.0715 75.9758 38.0308 76.4494 37.8934 76.899L35.34 85.2924L43.72 82.7391C44.1711 82.6016 44.6462 82.5615 45.1139 82.6212C45.5816 82.681 46.0314 82.8393 46.4334 83.0857C49.9479 85.2315 53.9116 86.5341 58.0138 86.8917C62.1161 87.2492 66.2454 86.6519 70.0781 85.1465C73.9108 83.6411 77.3429 81.2685 80.1053 78.2148C82.8676 75.161 84.8853 71.509 86 67.545C87.1148 63.581 87.2965 59.4127 86.5307 55.3667C85.7649 51.3208 84.0726 47.5071 81.5863 44.2246C79.1 40.9422 75.8874 38.2801 72.2001 36.447C68.5128 34.614 64.4512 33.6597 60.3334 33.6591Z" fill="white"/>
</g>
</svg>
